<?xml version="1.0" encoding="utf-8"?>
<svg xmlns="http://www.w3.org/2000/svg" viewBox="131.816 15.398 178.2827 182.4807" width="178.2827px" height="182.4807px"><g id="object-3"><circle cx="216.816" cy="100.398" r="85" fill="#f5f0e8" stroke="#e0e0e0" stroke-width="2" style="stroke-width: 2px;" id="object-0"/><g transform="matrix(1, 0, 0, 1, 141.815933, 25.398016)" id="object-1"><path d="M0,55 L75,10 L150,55 L150,60 L0,60 Z" fill="#4A6FA5"/><rect x="20" y="60" width="110" height="75" fill="#4A6FA5"/><rect x="65" y="95" width="20" height="40" fill="#ffffff"/><circle cx="78" cy="115" r="2" fill="#4A6FA5"/><rect x="35" y="75" width="20" height="20" fill="#ffffff" rx="2"/><line x1="35" y1="85" x2="55" y2="85" stroke="#4A6FA5" stroke-width="1.5"/><line x1="45" y1="75" x2="45" y2="95" stroke="#4A6FA5" stroke-width="1.5"/><rect x="95" y="75" width="20" height="20" fill="#ffffff" rx="2"/><line x1="95" y1="85" x2="115" y2="85" stroke="#4A6FA5" stroke-width="1.5"/><line x1="105" y1="75" x2="105" y2="95" stroke="#4A6FA5" stroke-width="1.5"/></g><g transform="matrix(1, 0, 0, 1, -8.223238, 0.042999)" id="object-2"><g transform="matrix(1, 0, 0, 1, -217.521057, 37.080708)"><rect x="466.41" y="75.309" width="58.085" height="74.68" fill="#e67e22" rx="3" style="stroke-width: 1.66px;"/><rect x="470.09" y="78.541" width="50.723" height="68.215" fill="#ffffff" rx="2" style="stroke-width: 1.66px;"/><line x1="476.367" y1="91.904" x2="509.558" y2="91.904" stroke="#e67e22" stroke-width="1.5" style="stroke-width: 2.489px;"/><line x1="476.367" y1="101.862" x2="509.558" y2="101.862" stroke="#e67e22" stroke-width="1.5" style="stroke-width: 2.489px;"/><line x1="476.367" y1="111.819" x2="502.92" y2="111.819" stroke="#e67e22" stroke-width="1.5" style="stroke-width: 2.489px;"/><line x1="476.367" y1="121.776" x2="499.601" y2="121.776" stroke="#e67e22" stroke-width="1" style="stroke-width: 1.66px;"/><line x1="476.367" y1="131.734" x2="496.282" y2="131.734" stroke="#e67e22" stroke-width="1" style="stroke-width: 1.66px;"/></g><g transform="matrix(1, 0, 0, 1, -212.283539, 42.31823)"><rect x="466.41" y="75.309" width="58.085" height="74.68" fill="#e67e22" rx="3" style="stroke-width: 1.66px;"/><rect x="470.09" y="78.541" width="50.723" height="68.215" fill="#ffffff" rx="2" style="stroke-width: 1.66px;"/><line x1="476.367" y1="91.904" x2="509.558" y2="91.904" stroke="#e67e22" stroke-width="1.5" style="stroke-width: 2.489px;"/><line x1="476.367" y1="101.862" x2="509.558" y2="101.862" stroke="#e67e22" stroke-width="1.5" style="stroke-width: 2.489px;"/><line x1="476.367" y1="111.819" x2="502.92" y2="111.819" stroke="#e67e22" stroke-width="1.5" style="stroke-width: 2.489px;"/><line x1="476.367" y1="121.776" x2="499.601" y2="121.776" stroke="#e67e22" stroke-width="1" style="stroke-width: 1.66px;"/><line x1="476.367" y1="131.734" x2="496.282" y2="131.734" stroke="#e67e22" stroke-width="1" style="stroke-width: 1.66px;"/></g><g transform="matrix(1, 0, 0, 1, -206.173096, 47.846725)"><rect x="466.41" y="75.309" width="58.085" height="74.68" fill="#e67e22" rx="3" style="stroke-width: 1.66px;"/><rect x="470.09" y="78.541" width="50.723" height="68.215" fill="#ffffff" rx="2" style="stroke-width: 1.66px;"/><line x1="476.367" y1="91.904" x2="509.558" y2="91.904" stroke="#e67e22" stroke-width="1.5" style="stroke-width: 2.489px;"/><line x1="476.367" y1="101.862" x2="509.558" y2="101.862" stroke="#e67e22" stroke-width="1.5" style="stroke-width: 2.489px;"/><line x1="476.367" y1="111.819" x2="502.92" y2="111.819" stroke="#e67e22" stroke-width="1.5" style="stroke-width: 2.489px;"/><line x1="476.367" y1="121.776" x2="499.601" y2="121.776" stroke="#e67e22" stroke-width="1" style="stroke-width: 1.66px;"/><line x1="476.367" y1="131.734" x2="496.282" y2="131.734" stroke="#e67e22" stroke-width="1" style="stroke-width: 1.66px;"/></g></g></g></svg>